<?xml version="1.0" encoding="UTF-8"?>
<svg xmlns="http://www.w3.org/2000/svg" xmlns:xlink="http://www.w3.org/1999/xlink" width="30px" height="30px" viewBox="0 0 30 30" version="1.1">
<g id="surface1">
<path style=" stroke:none;fill-rule:nonzero;fill:rgb(0%,0%,0%);fill-opacity:1;" d="M 28.867188 0.015625 C 28.828125 0.0234375 22.398438 3.226562 14.578125 7.136719 C 0.976562 13.9375 0.355469 14.253906 0.257812 14.359375 C 0.125 14.507812 0.0273438 14.722656 0.0078125 14.898438 C -0.0195312 15.179688 0.101562 15.507812 0.300781 15.683594 C 0.382812 15.757812 3.835938 17.492188 14.613281 22.878906 C 28.320312 29.734375 28.820312 29.980469 28.972656 29.992188 C 29.375 30.027344 29.734375 29.816406 29.914062 29.4375 C 29.980469 29.300781 29.988281 29.265625 29.984375 29.0625 C 29.984375 28.878906 29.972656 28.820312 29.925781 28.710938 C 29.894531 28.640625 27.828125 25.527344 25.339844 21.789062 L 20.8125 15 L 25.339844 8.210938 C 27.828125 4.472656 29.894531 1.359375 29.925781 1.289062 C 29.976562 1.179688 29.984375 1.125 29.984375 0.9375 C 29.984375 0.734375 29.980469 0.699219 29.914062 0.5625 C 29.722656 0.152344 29.328125 -0.0507812 28.867188 0.015625 Z M 28.867188 0.015625 "/>
</g>
</svg>
