<?xml version="1.0" encoding="UTF-8"?>
<svg xmlns="http://www.w3.org/2000/svg" xmlns:xlink="http://www.w3.org/1999/xlink" width="30px" height="30px" viewBox="0 0 30 30" version="1.1">
<g id="surface1">
<path style=" stroke:none;fill-rule:nonzero;fill:rgb(0%,0%,0%);fill-opacity:1;" d="M 0.699219 0.03125 C 0.417969 0.113281 0.214844 0.289062 0.0859375 0.5625 C 0.0195312 0.699219 0.0117188 0.734375 0.015625 0.9375 C 0.015625 1.121094 0.0273438 1.179688 0.0742188 1.289062 C 0.105469 1.359375 2.171875 4.472656 4.660156 8.210938 L 9.1875 15 L 4.660156 21.789062 C 2.171875 25.527344 0.105469 28.640625 0.0742188 28.710938 C 0.0234375 28.820312 0.015625 28.875 0.015625 29.0625 C 0.015625 29.265625 0.0195312 29.300781 0.0859375 29.4375 C 0.125 29.523438 0.203125 29.640625 0.253906 29.699219 C 0.4375 29.902344 0.777344 30.027344 1.066406 29.988281 C 1.1875 29.972656 2.96875 29.089844 15.421875 22.863281 C 29.023438 16.0625 29.644531 15.746094 29.742188 15.640625 C 29.875 15.492188 29.972656 15.277344 29.992188 15.101562 C 30.019531 14.820312 29.898438 14.492188 29.699219 14.316406 C 29.617188 14.242188 26.160156 12.507812 15.386719 7.121094 L 1.183594 0.0195312 L 0.996094 0.0078125 C 0.882812 0.00390625 0.765625 0.015625 0.699219 0.03125 Z M 0.699219 0.03125 "/>
</g>
</svg>
